# xmcd
#
# Track frame offsets:
#	150
#	13638
#	27828
#	42223
#	56322
#	70974
#	85204
#	99345
#	113230
#	125620
#	138586
#	151508
#
# Disc length: 2208 seconds
#
# Revision: 0
# Processed by: cddbd v1.5.2PL0 Copyright (c) Steve Scherf et al.
# Submitted via: EasyCDDAExtractor 16.0.6.1
#
DISCID=91089e0c
DTITLE=Βολιώτης Κώστας - Κλείσε, αν θέλεις, την κουρτίνα-LP, Κ. Βολιώτης
DYEAR=1977
DGENRE=Λαϊκή
TTITLE0=Όχι, όχι, όχι [Θ. Δερβενιώτη-Γ. Σαμολαδά]
TTITLE1=Εσένα θυμάμαι και κλαίω [Φ. Πολίτη-Ε. Χρυσίνη]
TTITLE2=Του χωρισμού το ποτήρι [Φ. Πολίτη-Ε. Χρυσίνη]
TTITLE3=Φαρμάκια κέρασέ με [Φ. Πολίτη-Ε. Χρυσίνη]
TTITLE4=Δεν γυρνούν τα χρόνια [Θ. Δερβενιώτη-Γ. Σαμολαδά]
TTITLE5=Μαχμούρικο μωρό μου [Ζαχ. Τσίχλα-Στέλ. Κυριακού]
TTITLE6=Η αγάπη μας [Φ. Πολίτη-Κ. Βέλλα]
TTITLE7=Αχ τι τραβάω βρε παιδιά [Ζαχ. Τσίχλα-Στέλ. Κυριακού]
TTITLE8=Μού 'γινες βραχνάς [Βασ. Καραπατάκη-Απ. Δρασέλα]
TTITLE9=Κλείσε, αν θέλεις, την κουρτίνα [Ν. Μυλωνά]
TTITLE10=Ό,τι μού ζητάς, το κάνω [Ν. Μυλωνά]
TTITLE11=Κρατήσου από 'μένα [Θ. Δερβενιώτη-Γ. Σαμολαδά]
EXTD=
EXTT0=
EXTT1=
EXTT2=
EXTT3=
EXTT4=
EXTT5=
EXTT6=
EXTT7=
EXTT8=
EXTT9=
EXTT10=
EXTT11=
PLAYORDER=
